<svg width="16" height="16" viewBox="0 0 16 16" fill="none" xmlns="http://www.w3.org/2000/svg">
<path d="M12.667 4.66701C12.667 3.93401 12.067 3.33401 11.334 3.33401H10.001C9.63401 3.33401 9.33401 3.63401 9.33401 4.00001C9.33401 4.36701 9.63401 4.66701 10.001 4.66701H11.334V6.43401L9.01401 9.33401H6.66701V6.66701C6.66701 6.30001 6.36701 6.00001 6.00101 6.00001H4.00001C3.64974 5.99988 3.30287 6.06878 2.97924 6.20276C2.6556 6.33674 2.36154 6.53319 2.11386 6.78087C1.86618 7.02855 1.66974 7.32261 1.53575 7.64624C1.40177 7.96988 1.33288 8.31674 1.33301 8.66701V10C1.33301 10.367 1.63301 10.667 2.00001 10.667H2.66601C2.66601 11.774 3.56001 12.667 4.66601 12.667C5.77301 12.667 6.66601 11.774 6.66601 10.667H9.01301C9.42001 10.667 9.80001 10.48 10.053 10.167L12.373 7.26701C12.566 7.02701 12.666 6.73301 12.666 6.43401L12.667 4.66701ZM4.66701 11.334C4.49044 11.3332 4.32135 11.2627 4.1966 11.1377C4.07184 11.0128 4.00153 10.8436 4.00101 10.667H5.33401C5.33401 11.034 5.03401 11.334 4.66701 11.334Z" fill="#9C9C9C"/>
<path d="M2.667 4H4.667C5.034 4 5.334 4.3 5.334 4.667C5.334 5.033 5.034 5.333 4.668 5.333H2.667C2.49044 5.33247 2.32124 5.26217 2.19629 5.13741C2.07135 5.01266 2.00079 4.84356 2 4.667C2 4.3 2.3 4 2.667 4ZM11.335 8.666C10.228 8.666 9.335 9.56 9.335 10.666C9.335 11.773 10.228 12.666 11.335 12.666C12.442 12.666 13.335 11.773 13.335 10.666C13.335 9.56 12.442 8.666 11.335 8.666ZM11.335 11.333C11.1583 11.3325 10.9889 11.262 10.8639 11.1371C10.739 11.0121 10.6685 10.8427 10.668 10.666C10.668 10.3 10.968 10 11.335 10C11.702 10 12.002 10.3 12.002 10.666C12.002 11.033 11.702 11.333 11.335 11.333Z" fill="#9C9C9C"/>
</svg>
