<svg width="18" height="10" viewBox="0 0 18 10" fill="none" xmlns="http://www.w3.org/2000/svg">
<path fill-rule="evenodd" clip-rule="evenodd" d="M11.8452 0.328488C12.2161 -0.0807477 12.8485 -0.111849 13.2577 0.259021L17.6715 4.25902C17.8807 4.44858 18 4.71772 18 5.00001C18 5.2823 17.8807 5.55143 17.6715 5.74099L13.2577 9.74099C12.8485 10.1119 12.2161 10.0808 11.8452 9.67153C11.4743 9.26229 11.5055 8.62989 11.9147 8.25902L14.4074 6.00001H1C0.447715 6.00001 0 5.55229 0 5.00001C0 4.44772 0.447715 4.00001 1 4.00001H14.4074L11.9147 1.74099C11.5055 1.37012 11.4743 0.737724 11.8452 0.328488Z" fill="#010033"/>
</svg>
