<svg width="40" height="35" viewBox="0 0 40 35" fill="none" xmlns="http://www.w3.org/2000/svg">
<path d="M29.1964 35C26.5179 34.2839 24.5238 32.7621 23.2143 30.4348C21.9048 28.0477 21.25 25.3623 21.25 22.3785C21.25 17.0673 22.8869 12.5021 26.1607 8.68286C29.494 4.8636 33.4821 1.96931 38.125 0L40 3.22251V4.11765C38.4524 4.65473 36.875 5.69906 35.2679 7.25064C33.7202 8.80221 32.4405 10.6522 31.4286 12.8005C30.4762 14.9488 30 17.127 30 19.335C30 21.364 30.4464 23.1245 31.3393 24.6164C32.2917 26.0486 33.5714 26.8841 35.1786 27.1228L34.9107 28.734L29.1964 35ZM7.94643 35C5.26786 34.2839 3.27381 32.7621 1.96429 30.4348C0.654762 28.0477 0 25.3623 0 22.3785C0 17.0673 1.6369 12.5021 4.91071 8.68286C8.24405 4.8636 12.2321 1.96931 16.875 0L18.75 3.22251V4.11765C17.2024 4.65473 15.625 5.69906 14.0179 7.25064C12.4702 8.80221 11.1905 10.6522 10.1786 12.8005C9.22619 14.9488 8.75 17.127 8.75 19.335C8.75 21.364 9.19643 23.1245 10.0893 24.6164C11.0417 26.0486 12.3214 26.8841 13.9286 27.1228L13.6607 28.734L7.94643 35Z" fill="#0300A6"/>
</svg>
