<svg width="40" height="35" viewBox="0 0 40 35" fill="none" xmlns="http://www.w3.org/2000/svg">
<path d="M32.0358 0C34.7204 0.716114 36.7189 2.26769 38.0313 4.65474C39.3438 6.9821 40 9.63768 40 12.6215C40 17.9327 38.3296 22.4979 34.9888 26.3171C31.7077 30.1364 27.7405 33.0307 23.0872 35L21.2081 31.7775V30.8824C22.7591 30.3453 24.3102 29.3009 25.8613 27.7494C27.472 26.1978 28.7547 24.3478 29.7092 22.1995C30.7233 20.0512 31.2304 17.873 31.2304 15.665C31.2304 13.636 30.7532 11.9054 29.7987 10.4731C28.9038 8.98125 27.651 8.11594 26.0403 7.87724L26.3087 6.26598L32.0358 0ZM10.8277 0C13.5123 0.716114 15.5108 2.26769 16.8233 4.65474C18.1357 6.9821 18.7919 9.63768 18.7919 12.6215C18.7919 17.9327 17.1216 22.4979 13.7808 26.3171C10.4996 30.1364 6.53244 33.0307 1.87919 35L0 31.7775V30.8824C1.55108 30.3453 3.10216 29.3009 4.65324 27.7494C6.26398 26.1978 7.54661 24.3478 8.50112 22.1995C9.51529 20.0512 10.0224 17.873 10.0224 15.665C10.0224 13.636 9.54512 11.9054 8.5906 10.4731C7.69575 8.98125 6.44295 8.11594 4.83222 7.87724L5.10067 6.26598L10.8277 0Z" fill="#0300A6"/>
</svg>
